HIERARCHY
ROOT Hips
{
    OFFSET 0.000000 0.000000 0.000000
    CHANNELS 6 Xposition Yposition Zposition Zrotation Xrotation Yrotation
    JOINT Spine
    {
        OFFSET -0.000000 8.349382 0.000000
        CHANNELS 3 Zrotation Xrotation Yrotation
        JOINT Spine1
        {
            OFFSET -0.000000 23.269058 0.000000
            CHANNELS 3 Zrotation Xrotation Yrotation
            JOINT Neck
            {
                OFFSET -0.000000 23.173496 2.106681
                CHANNELS 3 Zrotation Xrotation Yrotation
                JOINT Head
                {
                    OFFSET -0.000000 14.255042 -2.036435
                    CHANNELS 3 Zrotation Xrotation Yrotation
                    End Site
                    {
                        OFFSET -0.000000 25.455433 0.000000
                    }
                }
            }
            JOINT LeftShoulder
            {
                OFFSET 3.917082 21.531742 0.000256
                CHANNELS 3 Zrotation Xrotation Yrotation
                JOINT LeftArm
                {
                    OFFSET 10.728225 0.000000 0.000000
                    CHANNELS 3 Zrotation Xrotation Yrotation
                    JOINT LeftForeArm
                    {
                        OFFSET 30.046112 0.000000 0.000000
                        CHANNELS 3 Zrotation Xrotation Yrotation
                        JOINT LeftHand
                        {
                            OFFSET 29.023712 0.000000 0.000000
                            CHANNELS 3 Zrotation Xrotation Yrotation
                            End Site
                            {
                                OFFSET 15.273261 0.000000 0.000000
                            }
                        }
                    }
                }
            }
            JOINT RightShoulder
            {
                OFFSET -3.920664 21.531742 0.000256
                CHANNELS 3 Zrotation Xrotation Yrotation
                JOINT RightArm
                {
                    OFFSET -10.728225 0.000000 0.000000
                    CHANNELS 3 Zrotation Xrotation Yrotation
                    JOINT RightForeArm
                    {
                        OFFSET -30.046112 0.000000 0.000000
                        CHANNELS 3 Zrotation Xrotation Yrotation
                        JOINT RightHand
                        {
                            OFFSET -29.023712 0.000000 0.000000
                            CHANNELS 3 Zrotation Xrotation Yrotation
                            End Site
                            {
                                OFFSET -15.273261 0.000000 0.000000
                            }
                        }
                    }
                }
            }
        }
    }
    JOINT LeftUpLeg
    {
        OFFSET 10.182174 0.000000 0.000000
        CHANNELS 3 Zrotation Xrotation Yrotation
        JOINT LeftLeg
        {
            OFFSET -0.000000 -49.689274 0.000000
            CHANNELS 3 Zrotation Xrotation Yrotation
            JOINT LeftFoot
            {
                OFFSET -0.000000 -39.155319 0.000000
                CHANNELS 3 Zrotation Xrotation Yrotation
                JOINT LeftToeBase
                {
                    OFFSET -0.000000 -6.618412 15.273261
                    CHANNELS 3 Zrotation Xrotation Yrotation
                    End Site
                    {
                        OFFSET -0.000000 0.000000 4.072869
                    }
                }
            }
        }
    }
    JOINT RightUpLeg
    {
        OFFSET -10.182174 0.000000 0.000000
        CHANNELS 3 Zrotation Xrotation Yrotation
        JOINT RightLeg
        {
            OFFSET -0.000000 -49.689274 0.000000
            CHANNELS 3 Zrotation Xrotation Yrotation
            JOINT RightFoot
            {
                OFFSET -0.000000 -39.155319 0.000000
                CHANNELS 3 Zrotation Xrotation Yrotation
                JOINT RightToeBase
                {
                    OFFSET -0.000000 -6.618412 15.273261
                    CHANNELS 3 Zrotation Xrotation Yrotation
                    End Site
                    {
                        OFFSET -0.000000 0.000000 4.072869
                    }
                }
            }
        }
    }
}
MOTION
Frames:    8
Frame Time:    0.008333
-243.648834    98.601563    39.775070    0.981608    3.241545    96.593071    0.341024    1.001757    0.712901    0.715496    4.530558    0.687590    0.904131    7.764435    14.302327    -7.227337    -9.443298    13.221839    17.460152    -6.054518    -18.150448    -9.450772    -6.483866    5.177260    3.781184    -6.770454    -1.636857    -7.375178    -7.006400    4.523431    -20.103720    0.904418    -19.024401    18.420853    -3.244289    5.231109    -4.200837    -1.466136    4.831503    -2.043741    -1.295223    0.355660    2.749050    -2.039017    -2.875465    -5.687972    8.570308    -3.243237    -1.162719    -2.583824    13.764102    0.000000    0.000000    0.000000    -2.341605    2.156240    -2.980886    5.821631    7.181841    -1.126626    -7.439658    -6.537791    -16.010321    0.000000    0.000000    0.000000    
-243.702988    98.607079    39.788589    1.003117    3.260356    96.521095    0.460819    0.969308    0.697974    0.520989    4.622255    0.680853    0.921006    7.623413    14.383163    -7.168714    -8.737506    13.359722    17.463934    -6.059194    -18.033274    -9.627216    -6.543160    5.109636    3.644984    -6.424848    -1.571000    -7.789761    -6.673887    4.414178    -20.102972    0.766880    -18.919083    18.555790    -3.126621    5.356074    -3.978940    -1.187882    4.596363    -1.945875    -1.033326    0.305366    2.726607    -2.163785    -2.780716    -5.686220    8.828217    -3.278437    -1.214470    -2.639965    13.821360    0.000000    0.000000    0.000000    -2.365404    2.140386    -2.930315    5.833232    7.171405    -1.125831    -7.476365    -6.498921    -15.972916    0.000000    0.000000    0.000000    
-243.813950    98.653015    39.767136    0.965054    3.439741    96.478233    0.377875    1.071089    0.710570    0.432278    4.476008    0.697261    1.112368    7.077603    14.513973    -7.376200    -7.144098    13.531522    17.383940    -6.024698    -18.035086    -9.784128    -6.573597    5.090308    3.527393    -6.095595    -1.539099    -8.281348    -6.358027    4.299488    -20.082739    0.796113    -18.873322    18.599321    -3.116709    5.511257    -3.766171    -0.903483    4.337826    -1.670326    -0.766077    0.361598    2.457859    -2.415303    -2.756243    -5.573324    9.190378    -3.244697    -1.375093    -2.487221    13.836273    0.000000    0.000000    0.000000    -2.604635    2.011886    -2.992887    5.888779    7.257198    -1.142862    -7.426770    -6.461445    -15.846464    0.000000    0.000000    0.000000    
-243.866470    98.655762    39.770527    0.993358    3.466522    96.397736    0.385485    1.086539    0.759077    0.420368    4.506618    0.746290    1.029841    7.277480    14.417429    -7.313869    -6.975838    13.462626    17.360868    -5.844580    -18.172564    -9.979314    -6.607139    5.224924    3.586990    -5.925689    -1.559548    -9.016712    -6.206989    4.205257    -20.127638    0.827977    -18.888935    18.702545    -3.082741    5.671000    -3.592787    -0.700855    4.063606    -1.507452    -0.578912    0.424877    2.434801    -2.542745    -2.752703    -5.599409    9.491617    -3.363887    -1.435356    -2.598211    14.056874    0.000000    0.000000    0.000000    -2.648575    2.010429    -2.944001    5.914444    7.239885    -1.141994    -7.515849    -6.424774    -15.796449    0.000000    0.000000    0.000000    
-243.917465    98.655380    39.775520    1.020259    3.486089    96.301376    0.388902    1.112427    0.820550    0.407069    4.506002    0.808338    1.202031    6.988986    14.495516    -7.497839    -5.889698    13.559830    17.351376    -5.846983    -18.196318    -10.027931    -6.894292    5.258521    3.224734    -5.690548    -1.582883    -9.246729    -5.987380    4.238703    -20.123053    0.857778    -18.864052    18.733364    -3.114880    5.755487    -3.361401    -0.449459    3.839962    -1.346851    -0.341401    0.385666    2.416844    -2.667774    -2.702267    -5.608075    9.803868    -3.538958    -1.557008    -2.717221    14.279563    0.000000    0.000000    0.000000    -2.680986    2.010705    -2.872407    5.932385    7.207035    -1.138185    -7.457938    -6.415246    -15.753601    0.000000    0.000000    0.000000    
-243.953125    98.652870    39.772423    1.035918    3.496195    96.304497    0.444907    1.099605    0.809904    0.347952    4.508198    0.800490    1.180378    7.086408    14.610995    -7.450310    -5.611623    13.710040    17.319624    -5.798779    -18.200188    -10.336853    -6.582339    5.233305    3.447977    -5.701908    -1.491348    -9.933745    -6.083168    4.923920    -20.124098    0.851137    -18.798128    18.738108    -3.178241    5.817341    -3.123526    -0.185109    3.604286    -1.186176    -0.092379    0.521528    2.375180    -2.811913    -2.730969    -5.566329    10.111503    -3.585746    -1.579434    -2.830703    14.339344    0.000000    0.000000    0.000000    -2.710334    2.051281    -2.887772    5.968360    7.127338    -1.128382    -7.491474    -6.388106    -15.723307    0.000000    0.000000    0.000000    
-244.013168    98.651955    39.806980    1.070539    3.496391    96.225227    0.442189    1.190993    0.832919    0.349311    4.417579    0.824060    1.171959    7.138057    14.702762    -7.469257    -5.123878    13.834821    17.274275    -5.734229    -18.186865    -10.553017    -6.288967    5.257266    3.516448    -6.056608    -1.379052    -10.103734    -6.390162    4.272694    -20.264355    0.726255    -18.738098    18.853014    -3.086417    5.846186    -2.928594    0.015490    3.376175    -0.946507    0.096856    0.632332    2.402869    -2.957800    -2.628677    -5.575201    10.460155    -3.785097    -1.574760    -2.953027    14.503159    0.000000    0.000000    0.000000    -2.686815    2.064662    -2.792251    5.968292    7.302462    1.116984    -7.823692    -6.274369    -17.971540    0.000000    0.000000    0.000000    
-244.038254    98.659492    39.778358    1.176165    3.586584    96.200508    0.460140    1.269935    0.826730    0.272945    4.440553    0.821292    1.189018    7.160719    14.857429    -7.556864    -4.771797    14.001983    17.216179    -5.706970    -18.185768    -10.657460    -6.111883    5.329547    3.482813    -6.207438    -1.367543    -10.926492    -6.632521    4.904457    -20.300596    0.728031    -18.703230    18.867126    -3.095838    5.921923    -2.774928    0.223300    3.159087    -0.641618    0.295881    0.744349    2.429060    -2.842802    -2.901922    -5.906681    10.434667    -4.063640    -1.438755    -2.943175    15.103277    0.000000    0.000000    0.000000    -2.806184    2.223375    -2.785215    6.013873    7.177951    1.091237    -7.830553    -6.264776    -17.910400    0.000000    0.000000    0.000000    
